<mxfile host="app.diagrams.net" modified="2022-02-20T13:24:20.840Z" agent="5.0 (Windows)" etag="cNPjSl3Sp7om0R-2U3vk" version="16.6.1" type="github">
  <diagram id="3UZ-UxR4oXBbichSWLxv" name="Page-1">
    <mxGraphModel dx="1778" dy="934" grid="1" gridSize="10" guides="1" tooltips="1" connect="1" arrows="1" fold="1" page="1" pageScale="1" pageWidth="1100" pageHeight="850" math="0" shadow="0">
      <root>
        <mxCell id="0" />
        <mxCell id="1" parent="0" />
        <mxCell id="sH0RXC-WGh0GTHHwmaKx-1" value="&lt;font color=&quot;#FFFFFF&quot;&gt;Game&lt;/font&gt;" style="whiteSpace=wrap;html=1;fillColor=#000000;" parent="1" vertex="1">
          <mxGeometry x="400" y="40" width="80" height="40" as="geometry" />
        </mxCell>
        <mxCell id="sH0RXC-WGh0GTHHwmaKx-3" value="" style="endArrow=classic;startArrow=classic;html=1;rounded=0;" parent="1" source="sH0RXC-WGh0GTHHwmaKx-5" target="sH0RXC-WGh0GTHHwmaKx-7" edge="1">
          <mxGeometry width="50" height="50" relative="1" as="geometry">
            <mxPoint x="110" y="120" as="sourcePoint" />
            <mxPoint x="750" y="120" as="targetPoint" />
            <Array as="points">
              <mxPoint x="50" y="100" />
              <mxPoint x="565" y="100" />
              <mxPoint x="880" y="100" />
            </Array>
          </mxGeometry>
        </mxCell>
        <mxCell id="sH0RXC-WGh0GTHHwmaKx-4" value="" style="endArrow=classic;html=1;rounded=0;exitX=0.5;exitY=1;exitDx=0;exitDy=0;" parent="1" source="sH0RXC-WGh0GTHHwmaKx-1" edge="1">
          <mxGeometry width="50" height="50" relative="1" as="geometry">
            <mxPoint x="470" y="130" as="sourcePoint" />
            <mxPoint x="440" y="120" as="targetPoint" />
          </mxGeometry>
        </mxCell>
        <mxCell id="sH0RXC-WGh0GTHHwmaKx-14" style="edgeStyle=orthogonalEdgeStyle;rounded=0;orthogonalLoop=1;jettySize=auto;html=1;" parent="1" source="sH0RXC-WGh0GTHHwmaKx-5" target="sH0RXC-WGh0GTHHwmaKx-15" edge="1">
          <mxGeometry relative="1" as="geometry">
            <mxPoint x="50" y="210" as="targetPoint" />
            <Array as="points">
              <mxPoint x="20" y="190" />
            </Array>
          </mxGeometry>
        </mxCell>
        <mxCell id="sH0RXC-WGh0GTHHwmaKx-18" style="edgeStyle=orthogonalEdgeStyle;rounded=0;orthogonalLoop=1;jettySize=auto;html=1;" parent="1" source="sH0RXC-WGh0GTHHwmaKx-5" target="sH0RXC-WGh0GTHHwmaKx-20" edge="1">
          <mxGeometry relative="1" as="geometry">
            <mxPoint x="50" y="340" as="targetPoint" />
            <Array as="points">
              <mxPoint x="20" y="280" />
            </Array>
          </mxGeometry>
        </mxCell>
        <mxCell id="sH0RXC-WGh0GTHHwmaKx-38" style="edgeStyle=orthogonalEdgeStyle;rounded=0;orthogonalLoop=1;jettySize=auto;html=1;" parent="1" source="sH0RXC-WGh0GTHHwmaKx-5" target="sH0RXC-WGh0GTHHwmaKx-39" edge="1">
          <mxGeometry relative="1" as="geometry">
            <mxPoint x="50" y="400" as="targetPoint" />
            <Array as="points">
              <mxPoint x="20" y="410" />
            </Array>
          </mxGeometry>
        </mxCell>
        <mxCell id="sH0RXC-WGh0GTHHwmaKx-5" value="Title screen" style="whiteSpace=wrap;html=1;fillColor=#FF6666;" parent="1" vertex="1">
          <mxGeometry x="10" y="120" width="80" height="40" as="geometry" />
        </mxCell>
        <mxCell id="sH0RXC-WGh0GTHHwmaKx-45" style="edgeStyle=orthogonalEdgeStyle;rounded=0;orthogonalLoop=1;jettySize=auto;html=1;entryX=0.5;entryY=0;entryDx=0;entryDy=0;" parent="1" source="sH0RXC-WGh0GTHHwmaKx-6" target="sH0RXC-WGh0GTHHwmaKx-42" edge="1">
          <mxGeometry relative="1" as="geometry" />
        </mxCell>
        <mxCell id="sH0RXC-WGh0GTHHwmaKx-46" style="edgeStyle=orthogonalEdgeStyle;rounded=0;orthogonalLoop=1;jettySize=auto;html=1;entryX=0.5;entryY=0;entryDx=0;entryDy=0;" parent="1" source="sH0RXC-WGh0GTHHwmaKx-6" target="sH0RXC-WGh0GTHHwmaKx-41" edge="1">
          <mxGeometry relative="1" as="geometry">
            <Array as="points">
              <mxPoint x="440" y="180" />
              <mxPoint x="345" y="180" />
            </Array>
          </mxGeometry>
        </mxCell>
        <mxCell id="sH0RXC-WGh0GTHHwmaKx-47" style="edgeStyle=orthogonalEdgeStyle;rounded=0;orthogonalLoop=1;jettySize=auto;html=1;entryX=0.5;entryY=0;entryDx=0;entryDy=0;" parent="1" source="sH0RXC-WGh0GTHHwmaKx-6" target="sH0RXC-WGh0GTHHwmaKx-40" edge="1">
          <mxGeometry relative="1" as="geometry">
            <Array as="points">
              <mxPoint x="440" y="180" />
              <mxPoint x="245" y="180" />
            </Array>
          </mxGeometry>
        </mxCell>
        <mxCell id="sH0RXC-WGh0GTHHwmaKx-48" style="edgeStyle=orthogonalEdgeStyle;rounded=0;orthogonalLoop=1;jettySize=auto;html=1;entryX=0.5;entryY=0;entryDx=0;entryDy=0;" parent="1" source="sH0RXC-WGh0GTHHwmaKx-6" target="sH0RXC-WGh0GTHHwmaKx-43" edge="1">
          <mxGeometry relative="1" as="geometry">
            <Array as="points">
              <mxPoint x="440" y="180" />
              <mxPoint x="545" y="180" />
            </Array>
          </mxGeometry>
        </mxCell>
        <mxCell id="sH0RXC-WGh0GTHHwmaKx-62" style="edgeStyle=orthogonalEdgeStyle;rounded=0;orthogonalLoop=1;jettySize=auto;html=1;entryX=0.5;entryY=0;entryDx=0;entryDy=0;fillColor=#B9E0A5;" parent="1" source="sH0RXC-WGh0GTHHwmaKx-6" target="sH0RXC-WGh0GTHHwmaKx-61" edge="1">
          <mxGeometry relative="1" as="geometry">
            <Array as="points">
              <mxPoint x="440" y="180" />
              <mxPoint x="645" y="180" />
            </Array>
          </mxGeometry>
        </mxCell>
        <mxCell id="yBj-ejxsMenrFA8ZDO_d-39" style="edgeStyle=orthogonalEdgeStyle;rounded=0;orthogonalLoop=1;jettySize=auto;html=1;fontSize=10;" edge="1" parent="1" source="sH0RXC-WGh0GTHHwmaKx-6" target="sH0RXC-WGh0GTHHwmaKx-89">
          <mxGeometry relative="1" as="geometry">
            <Array as="points">
              <mxPoint x="440" y="180" />
              <mxPoint x="745" y="180" />
            </Array>
          </mxGeometry>
        </mxCell>
        <mxCell id="sH0RXC-WGh0GTHHwmaKx-6" value="Main game" style="whiteSpace=wrap;html=1;fillColor=#FF6666;" parent="1" vertex="1">
          <mxGeometry x="400" y="120" width="80" height="40" as="geometry" />
        </mxCell>
        <mxCell id="yBj-ejxsMenrFA8ZDO_d-46" style="edgeStyle=orthogonalEdgeStyle;rounded=0;orthogonalLoop=1;jettySize=auto;html=1;entryX=0;entryY=0.5;entryDx=0;entryDy=0;fontSize=10;" edge="1" parent="1" source="sH0RXC-WGh0GTHHwmaKx-7" target="yBj-ejxsMenrFA8ZDO_d-43">
          <mxGeometry relative="1" as="geometry">
            <Array as="points">
              <mxPoint x="850" y="190" />
            </Array>
          </mxGeometry>
        </mxCell>
        <mxCell id="yBj-ejxsMenrFA8ZDO_d-48" style="edgeStyle=orthogonalEdgeStyle;rounded=0;orthogonalLoop=1;jettySize=auto;html=1;entryX=0;entryY=0.5;entryDx=0;entryDy=0;fontSize=10;" edge="1" parent="1" source="sH0RXC-WGh0GTHHwmaKx-7" target="yBj-ejxsMenrFA8ZDO_d-45">
          <mxGeometry relative="1" as="geometry">
            <Array as="points">
              <mxPoint x="850" y="250" />
            </Array>
          </mxGeometry>
        </mxCell>
        <mxCell id="sH0RXC-WGh0GTHHwmaKx-7" value="Results" style="whiteSpace=wrap;html=1;fillColor=#FF6666;" parent="1" vertex="1">
          <mxGeometry x="840" y="120" width="80" height="40" as="geometry" />
        </mxCell>
        <mxCell id="sH0RXC-WGh0GTHHwmaKx-19" style="edgeStyle=orthogonalEdgeStyle;rounded=0;orthogonalLoop=1;jettySize=auto;html=1;fillColor=#B9E0A5;" parent="1" source="sH0RXC-WGh0GTHHwmaKx-15" target="sH0RXC-WGh0GTHHwmaKx-21" edge="1">
          <mxGeometry relative="1" as="geometry">
            <mxPoint x="90" y="260" as="targetPoint" />
            <Array as="points">
              <mxPoint x="60" y="235" />
            </Array>
          </mxGeometry>
        </mxCell>
        <mxCell id="sH0RXC-WGh0GTHHwmaKx-15" value="Begin game" style="whiteSpace=wrap;html=1;fillColor=#B9E0A5;" parent="1" vertex="1">
          <mxGeometry x="50" y="170" width="80" height="40" as="geometry" />
        </mxCell>
        <mxCell id="sH0RXC-WGh0GTHHwmaKx-25" style="edgeStyle=orthogonalEdgeStyle;rounded=0;orthogonalLoop=1;jettySize=auto;html=1;fillColor=#B9E0A5;" parent="1" source="sH0RXC-WGh0GTHHwmaKx-20" target="sH0RXC-WGh0GTHHwmaKx-23" edge="1">
          <mxGeometry relative="1" as="geometry">
            <mxPoint x="90" y="370" as="targetPoint" />
            <Array as="points">
              <mxPoint x="60" y="360" />
            </Array>
          </mxGeometry>
        </mxCell>
        <mxCell id="sH0RXC-WGh0GTHHwmaKx-26" style="edgeStyle=orthogonalEdgeStyle;rounded=0;orthogonalLoop=1;jettySize=auto;html=1;fillColor=#B9E0A5;" parent="1" source="sH0RXC-WGh0GTHHwmaKx-20" edge="1">
          <mxGeometry relative="1" as="geometry">
            <mxPoint x="90" y="320" as="targetPoint" />
            <Array as="points">
              <mxPoint x="60" y="320" />
              <mxPoint x="90" y="320" />
            </Array>
          </mxGeometry>
        </mxCell>
        <mxCell id="sH0RXC-WGh0GTHHwmaKx-20" value="Options menu" style="whiteSpace=wrap;html=1;fillColor=#B9E0A5;" parent="1" vertex="1">
          <mxGeometry x="50" y="260" width="80" height="40" as="geometry" />
        </mxCell>
        <mxCell id="sH0RXC-WGh0GTHHwmaKx-21" value="Character select" style="whiteSpace=wrap;html=1;fillColor=#67AB9F;" parent="1" vertex="1">
          <mxGeometry x="90" y="220" width="80" height="30" as="geometry" />
        </mxCell>
        <mxCell id="sH0RXC-WGh0GTHHwmaKx-22" value="Volume control" style="whiteSpace=wrap;html=1;fillColor=#67AB9F;" parent="1" vertex="1">
          <mxGeometry x="90" y="310" width="80" height="30" as="geometry" />
        </mxCell>
        <mxCell id="sH0RXC-WGh0GTHHwmaKx-23" value="Screen scale" style="whiteSpace=wrap;html=1;fillColor=#67AB9F;" parent="1" vertex="1">
          <mxGeometry x="90" y="350" width="80" height="30" as="geometry" />
        </mxCell>
        <mxCell id="sH0RXC-WGh0GTHHwmaKx-39" value="Credits" style="whiteSpace=wrap;html=1;fillColor=#B9E0A5;" parent="1" vertex="1">
          <mxGeometry x="50" y="390" width="80" height="40" as="geometry" />
        </mxCell>
        <mxCell id="sH0RXC-WGh0GTHHwmaKx-101" style="edgeStyle=orthogonalEdgeStyle;rounded=0;orthogonalLoop=1;jettySize=auto;html=1;entryX=0;entryY=0.5;entryDx=0;entryDy=0;fontSize=10;fontColor=none;fillColor=#B9E0A5;" parent="1" source="sH0RXC-WGh0GTHHwmaKx-40" target="sH0RXC-WGh0GTHHwmaKx-93" edge="1">
          <mxGeometry relative="1" as="geometry">
            <Array as="points">
              <mxPoint x="210" y="265" />
            </Array>
          </mxGeometry>
        </mxCell>
        <mxCell id="sH0RXC-WGh0GTHHwmaKx-102" style="edgeStyle=orthogonalEdgeStyle;rounded=0;orthogonalLoop=1;jettySize=auto;html=1;entryX=0;entryY=0.5;entryDx=0;entryDy=0;fontSize=10;fontColor=none;fillColor=#B9E0A5;" parent="1" source="sH0RXC-WGh0GTHHwmaKx-40" target="sH0RXC-WGh0GTHHwmaKx-94" edge="1">
          <mxGeometry relative="1" as="geometry">
            <Array as="points">
              <mxPoint x="210" y="305" />
            </Array>
          </mxGeometry>
        </mxCell>
        <mxCell id="sH0RXC-WGh0GTHHwmaKx-105" style="edgeStyle=orthogonalEdgeStyle;rounded=0;orthogonalLoop=1;jettySize=auto;html=1;entryX=0;entryY=0.25;entryDx=0;entryDy=0;fontSize=10;fontColor=none;fillColor=#B9E0A5;" parent="1" source="sH0RXC-WGh0GTHHwmaKx-40" target="sH0RXC-WGh0GTHHwmaKx-95" edge="1">
          <mxGeometry relative="1" as="geometry">
            <Array as="points">
              <mxPoint x="210" y="338" />
            </Array>
          </mxGeometry>
        </mxCell>
        <mxCell id="sH0RXC-WGh0GTHHwmaKx-106" style="edgeStyle=orthogonalEdgeStyle;rounded=0;orthogonalLoop=1;jettySize=auto;html=1;entryX=0;entryY=0.5;entryDx=0;entryDy=0;fontSize=10;fontColor=none;fillColor=#B9E0A5;" parent="1" source="sH0RXC-WGh0GTHHwmaKx-40" target="sH0RXC-WGh0GTHHwmaKx-96" edge="1">
          <mxGeometry relative="1" as="geometry">
            <Array as="points">
              <mxPoint x="210" y="400" />
            </Array>
          </mxGeometry>
        </mxCell>
        <mxCell id="yBj-ejxsMenrFA8ZDO_d-21" style="edgeStyle=orthogonalEdgeStyle;rounded=0;orthogonalLoop=1;jettySize=auto;html=1;entryX=0;entryY=0.5;entryDx=0;entryDy=0;fontSize=10;" edge="1" parent="1" source="sH0RXC-WGh0GTHHwmaKx-40" target="yBj-ejxsMenrFA8ZDO_d-20">
          <mxGeometry relative="1" as="geometry">
            <Array as="points">
              <mxPoint x="210" y="460" />
            </Array>
          </mxGeometry>
        </mxCell>
        <mxCell id="sH0RXC-WGh0GTHHwmaKx-40" value="Stages" style="whiteSpace=wrap;html=1;fillColor=#E6E6E6;" parent="1" vertex="1">
          <mxGeometry x="210" y="200" width="70" height="40" as="geometry" />
        </mxCell>
        <mxCell id="sH0RXC-WGh0GTHHwmaKx-55" style="edgeStyle=orthogonalEdgeStyle;rounded=0;orthogonalLoop=1;jettySize=auto;html=1;entryX=0;entryY=0.5;entryDx=0;entryDy=0;fillColor=#B9E0A5;" parent="1" source="sH0RXC-WGh0GTHHwmaKx-41" target="sH0RXC-WGh0GTHHwmaKx-49" edge="1">
          <mxGeometry relative="1" as="geometry">
            <Array as="points">
              <mxPoint x="310" y="265" />
            </Array>
          </mxGeometry>
        </mxCell>
        <mxCell id="sH0RXC-WGh0GTHHwmaKx-56" style="edgeStyle=orthogonalEdgeStyle;rounded=0;orthogonalLoop=1;jettySize=auto;html=1;entryX=0;entryY=0.5;entryDx=0;entryDy=0;fillColor=#B9E0A5;" parent="1" source="sH0RXC-WGh0GTHHwmaKx-41" target="sH0RXC-WGh0GTHHwmaKx-52" edge="1">
          <mxGeometry relative="1" as="geometry">
            <Array as="points">
              <mxPoint x="310" y="305" />
            </Array>
          </mxGeometry>
        </mxCell>
        <mxCell id="sH0RXC-WGh0GTHHwmaKx-57" style="edgeStyle=orthogonalEdgeStyle;rounded=0;orthogonalLoop=1;jettySize=auto;html=1;entryX=0;entryY=0.5;entryDx=0;entryDy=0;fillColor=#B9E0A5;" parent="1" source="sH0RXC-WGh0GTHHwmaKx-41" target="sH0RXC-WGh0GTHHwmaKx-53" edge="1">
          <mxGeometry relative="1" as="geometry">
            <Array as="points">
              <mxPoint x="310" y="345" />
            </Array>
          </mxGeometry>
        </mxCell>
        <mxCell id="sH0RXC-WGh0GTHHwmaKx-58" style="edgeStyle=orthogonalEdgeStyle;rounded=0;orthogonalLoop=1;jettySize=auto;html=1;entryX=0;entryY=0.5;entryDx=0;entryDy=0;fillColor=#B9E0A5;" parent="1" source="sH0RXC-WGh0GTHHwmaKx-41" target="sH0RXC-WGh0GTHHwmaKx-54" edge="1">
          <mxGeometry relative="1" as="geometry">
            <Array as="points">
              <mxPoint x="310" y="385" />
            </Array>
          </mxGeometry>
        </mxCell>
        <mxCell id="sH0RXC-WGh0GTHHwmaKx-41" value="Sound" style="whiteSpace=wrap;html=1;fillColor=#E6E6E6;" parent="1" vertex="1">
          <mxGeometry x="310" y="200" width="70" height="40" as="geometry" />
        </mxCell>
        <mxCell id="sH0RXC-WGh0GTHHwmaKx-119" style="edgeStyle=orthogonalEdgeStyle;rounded=0;orthogonalLoop=1;jettySize=auto;html=1;entryX=0;entryY=0.5;entryDx=0;entryDy=0;fontSize=10;fontColor=none;fillColor=#B9E0A5;" parent="1" source="sH0RXC-WGh0GTHHwmaKx-42" target="sH0RXC-WGh0GTHHwmaKx-115" edge="1">
          <mxGeometry relative="1" as="geometry">
            <Array as="points">
              <mxPoint x="410" y="265" />
            </Array>
          </mxGeometry>
        </mxCell>
        <mxCell id="sH0RXC-WGh0GTHHwmaKx-120" style="edgeStyle=orthogonalEdgeStyle;rounded=0;orthogonalLoop=1;jettySize=auto;html=1;entryX=0;entryY=0.5;entryDx=0;entryDy=0;fontSize=10;fontColor=none;fillColor=#B9E0A5;" parent="1" source="sH0RXC-WGh0GTHHwmaKx-42" target="sH0RXC-WGh0GTHHwmaKx-116" edge="1">
          <mxGeometry relative="1" as="geometry">
            <Array as="points">
              <mxPoint x="410" y="305" />
            </Array>
          </mxGeometry>
        </mxCell>
        <mxCell id="sH0RXC-WGh0GTHHwmaKx-121" style="edgeStyle=orthogonalEdgeStyle;rounded=0;orthogonalLoop=1;jettySize=auto;html=1;entryX=0;entryY=0.5;entryDx=0;entryDy=0;fontSize=10;fontColor=none;fillColor=#B9E0A5;" parent="1" source="sH0RXC-WGh0GTHHwmaKx-42" target="sH0RXC-WGh0GTHHwmaKx-117" edge="1">
          <mxGeometry relative="1" as="geometry">
            <Array as="points">
              <mxPoint x="410" y="345" />
            </Array>
          </mxGeometry>
        </mxCell>
        <mxCell id="sH0RXC-WGh0GTHHwmaKx-122" style="edgeStyle=orthogonalEdgeStyle;rounded=0;orthogonalLoop=1;jettySize=auto;html=1;entryX=0;entryY=0.5;entryDx=0;entryDy=0;fontSize=10;fontColor=none;fillColor=#B9E0A5;" parent="1" source="sH0RXC-WGh0GTHHwmaKx-42" target="sH0RXC-WGh0GTHHwmaKx-118" edge="1">
          <mxGeometry relative="1" as="geometry">
            <Array as="points">
              <mxPoint x="410" y="385" />
            </Array>
          </mxGeometry>
        </mxCell>
        <mxCell id="sH0RXC-WGh0GTHHwmaKx-124" style="edgeStyle=orthogonalEdgeStyle;rounded=0;orthogonalLoop=1;jettySize=auto;html=1;entryX=0.5;entryY=0;entryDx=0;entryDy=0;fontSize=10;fontColor=none;fillColor=#B9E0A5;" parent="1" source="sH0RXC-WGh0GTHHwmaKx-42" target="sH0RXC-WGh0GTHHwmaKx-113" edge="1">
          <mxGeometry relative="1" as="geometry">
            <Array as="points">
              <mxPoint x="410" y="500" />
              <mxPoint x="435" y="500" />
            </Array>
          </mxGeometry>
        </mxCell>
        <mxCell id="sH0RXC-WGh0GTHHwmaKx-125" style="edgeStyle=orthogonalEdgeStyle;rounded=0;orthogonalLoop=1;jettySize=auto;html=1;entryX=0.5;entryY=0;entryDx=0;entryDy=0;fontSize=10;fontColor=none;fillColor=#B9E0A5;" parent="1" source="sH0RXC-WGh0GTHHwmaKx-42" target="sH0RXC-WGh0GTHHwmaKx-114" edge="1">
          <mxGeometry relative="1" as="geometry">
            <Array as="points">
              <mxPoint x="410" y="500" />
              <mxPoint x="555" y="500" />
            </Array>
          </mxGeometry>
        </mxCell>
        <mxCell id="sH0RXC-WGh0GTHHwmaKx-130" style="edgeStyle=orthogonalEdgeStyle;rounded=0;orthogonalLoop=1;jettySize=auto;html=1;entryX=0;entryY=0.5;entryDx=0;entryDy=0;fontSize=10;fontColor=none;fillColor=#B9E0A5;" parent="1" source="sH0RXC-WGh0GTHHwmaKx-42" target="sH0RXC-WGh0GTHHwmaKx-129" edge="1">
          <mxGeometry relative="1" as="geometry">
            <Array as="points">
              <mxPoint x="410" y="430" />
            </Array>
          </mxGeometry>
        </mxCell>
        <mxCell id="sH0RXC-WGh0GTHHwmaKx-42" value="Objects" style="whiteSpace=wrap;html=1;fillColor=#E6E6E6;" parent="1" vertex="1">
          <mxGeometry x="410" y="200" width="70" height="40" as="geometry" />
        </mxCell>
        <mxCell id="sH0RXC-WGh0GTHHwmaKx-72" style="edgeStyle=orthogonalEdgeStyle;rounded=0;orthogonalLoop=1;jettySize=auto;html=1;entryX=0;entryY=0.5;entryDx=0;entryDy=0;fillColor=#B9E0A5;" parent="1" source="sH0RXC-WGh0GTHHwmaKx-43" target="sH0RXC-WGh0GTHHwmaKx-65" edge="1">
          <mxGeometry relative="1" as="geometry">
            <Array as="points">
              <mxPoint x="510" y="265" />
            </Array>
          </mxGeometry>
        </mxCell>
        <mxCell id="sH0RXC-WGh0GTHHwmaKx-73" style="edgeStyle=orthogonalEdgeStyle;rounded=0;orthogonalLoop=1;jettySize=auto;html=1;entryX=0;entryY=0.5;entryDx=0;entryDy=0;fillColor=#B9E0A5;" parent="1" source="sH0RXC-WGh0GTHHwmaKx-43" target="sH0RXC-WGh0GTHHwmaKx-69" edge="1">
          <mxGeometry relative="1" as="geometry">
            <Array as="points">
              <mxPoint x="510" y="305" />
            </Array>
          </mxGeometry>
        </mxCell>
        <mxCell id="sH0RXC-WGh0GTHHwmaKx-74" style="edgeStyle=orthogonalEdgeStyle;rounded=0;orthogonalLoop=1;jettySize=auto;html=1;entryX=0;entryY=0.5;entryDx=0;entryDy=0;fillColor=#B9E0A5;" parent="1" source="sH0RXC-WGh0GTHHwmaKx-43" target="sH0RXC-WGh0GTHHwmaKx-70" edge="1">
          <mxGeometry relative="1" as="geometry">
            <Array as="points">
              <mxPoint x="510" y="345" />
            </Array>
          </mxGeometry>
        </mxCell>
        <mxCell id="sH0RXC-WGh0GTHHwmaKx-75" style="edgeStyle=orthogonalEdgeStyle;rounded=0;orthogonalLoop=1;jettySize=auto;html=1;entryX=0;entryY=0.5;entryDx=0;entryDy=0;fillColor=#B9E0A5;" parent="1" source="sH0RXC-WGh0GTHHwmaKx-43" target="sH0RXC-WGh0GTHHwmaKx-71" edge="1">
          <mxGeometry relative="1" as="geometry">
            <Array as="points">
              <mxPoint x="510" y="385" />
            </Array>
          </mxGeometry>
        </mxCell>
        <mxCell id="sH0RXC-WGh0GTHHwmaKx-86" style="edgeStyle=orthogonalEdgeStyle;rounded=0;orthogonalLoop=1;jettySize=auto;html=1;entryX=0;entryY=0.5;entryDx=0;entryDy=0;fillColor=#B9E0A5;" parent="1" source="sH0RXC-WGh0GTHHwmaKx-43" target="sH0RXC-WGh0GTHHwmaKx-85" edge="1">
          <mxGeometry relative="1" as="geometry">
            <Array as="points">
              <mxPoint x="510" y="435" />
            </Array>
          </mxGeometry>
        </mxCell>
        <mxCell id="sH0RXC-WGh0GTHHwmaKx-43" value="Controls" style="whiteSpace=wrap;html=1;fillColor=#E6E6E6;" parent="1" vertex="1">
          <mxGeometry x="510" y="200" width="70" height="40" as="geometry" />
        </mxCell>
        <mxCell id="sH0RXC-WGh0GTHHwmaKx-49" value="Ambience" style="whiteSpace=wrap;html=1;fillColor=#CCFFFF;" parent="1" vertex="1">
          <mxGeometry x="330" y="250" width="70" height="30" as="geometry" />
        </mxCell>
        <mxCell id="sH0RXC-WGh0GTHHwmaKx-52" value="Music" style="whiteSpace=wrap;html=1;fillColor=#CCFFFF;" parent="1" vertex="1">
          <mxGeometry x="330" y="290" width="70" height="30" as="geometry" />
        </mxCell>
        <mxCell id="sH0RXC-WGh0GTHHwmaKx-53" value="Enemies" style="whiteSpace=wrap;html=1;fillColor=#CCFFFF;" parent="1" vertex="1">
          <mxGeometry x="330" y="330" width="70" height="30" as="geometry" />
        </mxCell>
        <mxCell id="sH0RXC-WGh0GTHHwmaKx-54" value="Weapons" style="whiteSpace=wrap;html=1;fillColor=#CCFFFF;" parent="1" vertex="1">
          <mxGeometry x="330" y="370" width="70" height="30" as="geometry" />
        </mxCell>
        <mxCell id="sH0RXC-WGh0GTHHwmaKx-82" style="edgeStyle=orthogonalEdgeStyle;rounded=0;orthogonalLoop=1;jettySize=auto;html=1;entryX=0;entryY=0.5;entryDx=0;entryDy=0;fillColor=#B9E0A5;" parent="1" source="sH0RXC-WGh0GTHHwmaKx-61" target="sH0RXC-WGh0GTHHwmaKx-66" edge="1">
          <mxGeometry relative="1" as="geometry">
            <Array as="points">
              <mxPoint x="610" y="265" />
            </Array>
          </mxGeometry>
        </mxCell>
        <mxCell id="sH0RXC-WGh0GTHHwmaKx-97" style="edgeStyle=orthogonalEdgeStyle;rounded=0;orthogonalLoop=1;jettySize=auto;html=1;entryX=0;entryY=0.5;entryDx=0;entryDy=0;fontSize=10;fontColor=none;fillColor=#B9E0A5;" parent="1" source="sH0RXC-WGh0GTHHwmaKx-61" target="sH0RXC-WGh0GTHHwmaKx-76" edge="1">
          <mxGeometry relative="1" as="geometry">
            <Array as="points">
              <mxPoint x="610" y="310" />
            </Array>
          </mxGeometry>
        </mxCell>
        <mxCell id="sH0RXC-WGh0GTHHwmaKx-98" style="edgeStyle=orthogonalEdgeStyle;rounded=0;orthogonalLoop=1;jettySize=auto;html=1;entryX=0;entryY=0.5;entryDx=0;entryDy=0;fontSize=10;fontColor=none;fillColor=#B9E0A5;" parent="1" source="sH0RXC-WGh0GTHHwmaKx-61" target="sH0RXC-WGh0GTHHwmaKx-90" edge="1">
          <mxGeometry relative="1" as="geometry">
            <Array as="points">
              <mxPoint x="610" y="355" />
            </Array>
          </mxGeometry>
        </mxCell>
        <mxCell id="sH0RXC-WGh0GTHHwmaKx-100" style="edgeStyle=orthogonalEdgeStyle;rounded=0;orthogonalLoop=1;jettySize=auto;html=1;entryX=0;entryY=0.5;entryDx=0;entryDy=0;fontSize=10;fontColor=none;fillColor=#B9E0A5;" parent="1" source="sH0RXC-WGh0GTHHwmaKx-61" target="sH0RXC-WGh0GTHHwmaKx-99" edge="1">
          <mxGeometry relative="1" as="geometry">
            <Array as="points">
              <mxPoint x="610" y="405" />
            </Array>
          </mxGeometry>
        </mxCell>
        <mxCell id="sH0RXC-WGh0GTHHwmaKx-61" value="Leveling up" style="whiteSpace=wrap;html=1;fillColor=#E6E6E6;" parent="1" vertex="1">
          <mxGeometry x="610" y="200" width="70" height="40" as="geometry" />
        </mxCell>
        <mxCell id="sH0RXC-WGh0GTHHwmaKx-65" value="WASD to move" style="whiteSpace=wrap;html=1;fillColor=#CCFFFF;" parent="1" vertex="1">
          <mxGeometry x="530" y="250" width="70" height="30" as="geometry" />
        </mxCell>
        <mxCell id="sH0RXC-WGh0GTHHwmaKx-66" value="&lt;font style=&quot;font-size: 10px&quot;&gt;Level up with enough EXP&lt;/font&gt;" style="whiteSpace=wrap;html=1;fillColor=#CCFFFF;" parent="1" vertex="1">
          <mxGeometry x="630" y="250" width="70" height="30" as="geometry" />
        </mxCell>
        <mxCell id="sH0RXC-WGh0GTHHwmaKx-69" value="Left click: fire/confirm" style="whiteSpace=wrap;html=1;fillColor=#CCFFFF;" parent="1" vertex="1">
          <mxGeometry x="530" y="290" width="70" height="30" as="geometry" />
        </mxCell>
        <mxCell id="sH0RXC-WGh0GTHHwmaKx-70" value="Right click: Active ability" style="whiteSpace=wrap;html=1;fillColor=#CCFFFF;" parent="1" vertex="1">
          <mxGeometry x="530" y="330" width="70" height="30" as="geometry" />
        </mxCell>
        <mxCell id="sH0RXC-WGh0GTHHwmaKx-71" value="Esc to pause" style="whiteSpace=wrap;html=1;fillColor=#CCFFFF;" parent="1" vertex="1">
          <mxGeometry x="530" y="370" width="70" height="30" as="geometry" />
        </mxCell>
        <mxCell id="sH0RXC-WGh0GTHHwmaKx-76" value="&lt;font style=&quot;font-size: 10px&quot;&gt;Pick upgrade upon next level&lt;/font&gt;" style="whiteSpace=wrap;html=1;fillColor=#CCFFFF;" parent="1" vertex="1">
          <mxGeometry x="630" y="290" width="70" height="40" as="geometry" />
        </mxCell>
        <mxCell id="sH0RXC-WGh0GTHHwmaKx-85" value="Move mouse to aim/select" style="whiteSpace=wrap;html=1;fillColor=#CCFFFF;" parent="1" vertex="1">
          <mxGeometry x="530" y="410" width="70" height="50" as="geometry" />
        </mxCell>
        <mxCell id="sH0RXC-WGh0GTHHwmaKx-109" style="edgeStyle=orthogonalEdgeStyle;rounded=0;orthogonalLoop=1;jettySize=auto;html=1;entryX=0;entryY=0.6;entryDx=0;entryDy=0;entryPerimeter=0;fontSize=10;fontColor=none;fillColor=#B9E0A5;" parent="1" source="sH0RXC-WGh0GTHHwmaKx-89" target="sH0RXC-WGh0GTHHwmaKx-91" edge="1">
          <mxGeometry relative="1" as="geometry">
            <Array as="points">
              <mxPoint x="710" y="280" />
            </Array>
          </mxGeometry>
        </mxCell>
        <mxCell id="sH0RXC-WGh0GTHHwmaKx-110" style="edgeStyle=orthogonalEdgeStyle;rounded=0;orthogonalLoop=1;jettySize=auto;html=1;entryX=0;entryY=0.5;entryDx=0;entryDy=0;fontSize=10;fontColor=none;fillColor=#B9E0A5;" parent="1" source="sH0RXC-WGh0GTHHwmaKx-89" target="sH0RXC-WGh0GTHHwmaKx-92" edge="1">
          <mxGeometry relative="1" as="geometry">
            <Array as="points">
              <mxPoint x="710" y="330" />
            </Array>
          </mxGeometry>
        </mxCell>
        <mxCell id="sH0RXC-WGh0GTHHwmaKx-89" value="Difficulty scaling" style="whiteSpace=wrap;html=1;fillColor=#E6E6E6;" parent="1" vertex="1">
          <mxGeometry x="710" y="200" width="70" height="40" as="geometry" />
        </mxCell>
        <mxCell id="sH0RXC-WGh0GTHHwmaKx-90" value="Upgrades" style="whiteSpace=wrap;html=1;fillColor=#CCFFFF;" parent="1" vertex="1">
          <mxGeometry x="630" y="340" width="70" height="30" as="geometry" />
        </mxCell>
        <mxCell id="sH0RXC-WGh0GTHHwmaKx-91" value="&lt;font style=&quot;font-size: 10px&quot;&gt;Increase amount of enemies&lt;/font&gt;" style="whiteSpace=wrap;html=1;fillColor=#CCFFFF;" parent="1" vertex="1">
          <mxGeometry x="730" y="250" width="70" height="50" as="geometry" />
        </mxCell>
        <mxCell id="sH0RXC-WGh0GTHHwmaKx-92" value="&lt;span style=&quot;font-size: 10px&quot;&gt;Scale with stages completed&lt;/span&gt;" style="whiteSpace=wrap;html=1;fillColor=#CCFFFF;" parent="1" vertex="1">
          <mxGeometry x="730" y="310" width="70" height="40" as="geometry" />
        </mxCell>
        <mxCell id="sH0RXC-WGh0GTHHwmaKx-93" value="Tilemap generation" style="whiteSpace=wrap;html=1;fillColor=#CCFFFF;" parent="1" vertex="1">
          <mxGeometry x="230" y="250" width="70" height="30" as="geometry" />
        </mxCell>
        <mxCell id="sH0RXC-WGh0GTHHwmaKx-94" value="Stage number" style="whiteSpace=wrap;html=1;fillColor=#CCFFFF;" parent="1" vertex="1">
          <mxGeometry x="230" y="290" width="70" height="30" as="geometry" />
        </mxCell>
        <mxCell id="sH0RXC-WGh0GTHHwmaKx-95" value="Autotiling" style="whiteSpace=wrap;html=1;fillColor=#CCFFFF;" parent="1" vertex="1">
          <mxGeometry x="230" y="330" width="70" height="30" as="geometry" />
        </mxCell>
        <mxCell id="sH0RXC-WGh0GTHHwmaKx-96" value="&lt;font style=&quot;font-size: 10px&quot;&gt;Spawn enemies based on difficulty&lt;/font&gt;" style="whiteSpace=wrap;html=1;fillColor=#CCFFFF;" parent="1" vertex="1">
          <mxGeometry x="230" y="370" width="70" height="60" as="geometry" />
        </mxCell>
        <mxCell id="sH0RXC-WGh0GTHHwmaKx-99" value="&lt;font style=&quot;font-size: 10px&quot;&gt;Increase needed EXP per-level&lt;/font&gt;" style="whiteSpace=wrap;html=1;fillColor=#CCFFFF;" parent="1" vertex="1">
          <mxGeometry x="640" y="380" width="70" height="50" as="geometry" />
        </mxCell>
        <mxCell id="yBj-ejxsMenrFA8ZDO_d-10" style="edgeStyle=orthogonalEdgeStyle;rounded=0;orthogonalLoop=1;jettySize=auto;html=1;entryX=0;entryY=0.5;entryDx=0;entryDy=0;fontSize=10;" edge="1" parent="1" source="sH0RXC-WGh0GTHHwmaKx-113" target="sH0RXC-WGh0GTHHwmaKx-126">
          <mxGeometry relative="1" as="geometry">
            <Array as="points">
              <mxPoint x="400" y="585" />
            </Array>
          </mxGeometry>
        </mxCell>
        <mxCell id="yBj-ejxsMenrFA8ZDO_d-11" style="edgeStyle=orthogonalEdgeStyle;rounded=0;orthogonalLoop=1;jettySize=auto;html=1;entryX=0;entryY=0.5;entryDx=0;entryDy=0;fontSize=10;" edge="1" parent="1" source="sH0RXC-WGh0GTHHwmaKx-113" target="yBj-ejxsMenrFA8ZDO_d-3">
          <mxGeometry relative="1" as="geometry">
            <Array as="points">
              <mxPoint x="400" y="625" />
            </Array>
          </mxGeometry>
        </mxCell>
        <mxCell id="yBj-ejxsMenrFA8ZDO_d-13" style="edgeStyle=orthogonalEdgeStyle;rounded=0;orthogonalLoop=1;jettySize=auto;html=1;entryX=0;entryY=0.5;entryDx=0;entryDy=0;fontSize=10;" edge="1" parent="1" source="sH0RXC-WGh0GTHHwmaKx-113" target="yBj-ejxsMenrFA8ZDO_d-5">
          <mxGeometry relative="1" as="geometry">
            <Array as="points">
              <mxPoint x="400" y="670" />
            </Array>
          </mxGeometry>
        </mxCell>
        <mxCell id="yBj-ejxsMenrFA8ZDO_d-14" style="edgeStyle=orthogonalEdgeStyle;rounded=0;orthogonalLoop=1;jettySize=auto;html=1;entryX=0;entryY=0.5;entryDx=0;entryDy=0;fontSize=10;" edge="1" parent="1" source="sH0RXC-WGh0GTHHwmaKx-113" target="yBj-ejxsMenrFA8ZDO_d-6">
          <mxGeometry relative="1" as="geometry">
            <Array as="points">
              <mxPoint x="400" y="715" />
            </Array>
          </mxGeometry>
        </mxCell>
        <mxCell id="yBj-ejxsMenrFA8ZDO_d-15" style="edgeStyle=orthogonalEdgeStyle;rounded=0;orthogonalLoop=1;jettySize=auto;html=1;entryX=0;entryY=0.5;entryDx=0;entryDy=0;fontSize=10;" edge="1" parent="1" source="sH0RXC-WGh0GTHHwmaKx-113" target="yBj-ejxsMenrFA8ZDO_d-7">
          <mxGeometry relative="1" as="geometry">
            <Array as="points">
              <mxPoint x="400" y="755" />
            </Array>
          </mxGeometry>
        </mxCell>
        <mxCell id="yBj-ejxsMenrFA8ZDO_d-34" style="edgeStyle=orthogonalEdgeStyle;rounded=0;orthogonalLoop=1;jettySize=auto;html=1;entryX=0;entryY=0.5;entryDx=0;entryDy=0;fontSize=10;" edge="1" parent="1" source="sH0RXC-WGh0GTHHwmaKx-113" target="yBj-ejxsMenrFA8ZDO_d-30">
          <mxGeometry relative="1" as="geometry">
            <Array as="points">
              <mxPoint x="400" y="795" />
            </Array>
          </mxGeometry>
        </mxCell>
        <mxCell id="sH0RXC-WGh0GTHHwmaKx-113" value="Player" style="whiteSpace=wrap;html=1;fillColor=#B266FF;" parent="1" vertex="1">
          <mxGeometry x="400" y="520" width="70" height="40" as="geometry" />
        </mxCell>
        <mxCell id="yBj-ejxsMenrFA8ZDO_d-25" style="edgeStyle=orthogonalEdgeStyle;rounded=0;orthogonalLoop=1;jettySize=auto;html=1;entryX=0;entryY=0.5;entryDx=0;entryDy=0;fontSize=10;" edge="1" parent="1" source="sH0RXC-WGh0GTHHwmaKx-114" target="sH0RXC-WGh0GTHHwmaKx-128">
          <mxGeometry relative="1" as="geometry">
            <Array as="points">
              <mxPoint x="520" y="585" />
            </Array>
          </mxGeometry>
        </mxCell>
        <mxCell id="yBj-ejxsMenrFA8ZDO_d-26" style="edgeStyle=orthogonalEdgeStyle;rounded=0;orthogonalLoop=1;jettySize=auto;html=1;entryX=0;entryY=0.5;entryDx=0;entryDy=0;fontSize=10;" edge="1" parent="1" source="sH0RXC-WGh0GTHHwmaKx-114" target="yBj-ejxsMenrFA8ZDO_d-17">
          <mxGeometry relative="1" as="geometry">
            <Array as="points">
              <mxPoint x="520" y="625" />
            </Array>
          </mxGeometry>
        </mxCell>
        <mxCell id="yBj-ejxsMenrFA8ZDO_d-27" style="edgeStyle=orthogonalEdgeStyle;rounded=0;orthogonalLoop=1;jettySize=auto;html=1;entryX=0;entryY=0.5;entryDx=0;entryDy=0;fontSize=10;" edge="1" parent="1" source="sH0RXC-WGh0GTHHwmaKx-114" target="yBj-ejxsMenrFA8ZDO_d-22">
          <mxGeometry relative="1" as="geometry">
            <Array as="points">
              <mxPoint x="520" y="665" />
            </Array>
          </mxGeometry>
        </mxCell>
        <mxCell id="yBj-ejxsMenrFA8ZDO_d-28" style="edgeStyle=orthogonalEdgeStyle;rounded=0;orthogonalLoop=1;jettySize=auto;html=1;entryX=0;entryY=0.5;entryDx=0;entryDy=0;fontSize=10;" edge="1" parent="1" source="sH0RXC-WGh0GTHHwmaKx-114" target="yBj-ejxsMenrFA8ZDO_d-23">
          <mxGeometry relative="1" as="geometry">
            <Array as="points">
              <mxPoint x="520" y="710" />
            </Array>
          </mxGeometry>
        </mxCell>
        <mxCell id="yBj-ejxsMenrFA8ZDO_d-29" style="edgeStyle=orthogonalEdgeStyle;rounded=0;orthogonalLoop=1;jettySize=auto;html=1;entryX=0;entryY=0.5;entryDx=0;entryDy=0;fontSize=10;" edge="1" parent="1" source="sH0RXC-WGh0GTHHwmaKx-114" target="yBj-ejxsMenrFA8ZDO_d-24">
          <mxGeometry relative="1" as="geometry">
            <Array as="points">
              <mxPoint x="520" y="755" />
            </Array>
          </mxGeometry>
        </mxCell>
        <mxCell id="yBj-ejxsMenrFA8ZDO_d-32" style="edgeStyle=orthogonalEdgeStyle;rounded=0;orthogonalLoop=1;jettySize=auto;html=1;entryX=0;entryY=0.5;entryDx=0;entryDy=0;fontSize=10;" edge="1" parent="1" source="sH0RXC-WGh0GTHHwmaKx-114" target="yBj-ejxsMenrFA8ZDO_d-31">
          <mxGeometry relative="1" as="geometry">
            <Array as="points">
              <mxPoint x="520" y="795" />
            </Array>
          </mxGeometry>
        </mxCell>
        <mxCell id="sH0RXC-WGh0GTHHwmaKx-114" value="Enemies" style="whiteSpace=wrap;html=1;fillColor=#B266FF;" parent="1" vertex="1">
          <mxGeometry x="520" y="520" width="70" height="40" as="geometry" />
        </mxCell>
        <mxCell id="sH0RXC-WGh0GTHHwmaKx-115" value="Current HP" style="whiteSpace=wrap;html=1;fillColor=#CCFFFF;" parent="1" vertex="1">
          <mxGeometry x="430" y="250" width="70" height="30" as="geometry" />
        </mxCell>
        <mxCell id="sH0RXC-WGh0GTHHwmaKx-116" value="Max HP" style="whiteSpace=wrap;html=1;fillColor=#CCFFFF;" parent="1" vertex="1">
          <mxGeometry x="430" y="290" width="70" height="30" as="geometry" />
        </mxCell>
        <mxCell id="sH0RXC-WGh0GTHHwmaKx-117" value="Current weapon" style="whiteSpace=wrap;html=1;fillColor=#CCFFFF;" parent="1" vertex="1">
          <mxGeometry x="430" y="330" width="70" height="30" as="geometry" />
        </mxCell>
        <mxCell id="sH0RXC-WGh0GTHHwmaKx-118" value="Position (x, y)" style="whiteSpace=wrap;html=1;fillColor=#CCFFFF;" parent="1" vertex="1">
          <mxGeometry x="430" y="370" width="70" height="30" as="geometry" />
        </mxCell>
        <mxCell id="sH0RXC-WGh0GTHHwmaKx-126" value="Switching weapons" style="whiteSpace=wrap;html=1;fillColor=#FF99FF;" parent="1" vertex="1">
          <mxGeometry x="420" y="570" width="70" height="30" as="geometry" />
        </mxCell>
        <mxCell id="sH0RXC-WGh0GTHHwmaKx-128" value="Execute AI" style="whiteSpace=wrap;html=1;fillColor=#FF99FF;" parent="1" vertex="1">
          <mxGeometry x="540" y="570" width="70" height="30" as="geometry" />
        </mxCell>
        <mxCell id="sH0RXC-WGh0GTHHwmaKx-129" value="Destroy when HP &amp;lt;= 0" style="whiteSpace=wrap;html=1;fillColor=#CCFFFF;" parent="1" vertex="1">
          <mxGeometry x="430" y="410" width="70" height="40" as="geometry" />
        </mxCell>
        <mxCell id="yBj-ejxsMenrFA8ZDO_d-3" value="&lt;font style=&quot;font-size: 10px&quot;&gt;Weapon needs ammo&lt;br&gt;&lt;/font&gt;" style="whiteSpace=wrap;html=1;fillColor=#FF99FF;" vertex="1" parent="1">
          <mxGeometry x="420" y="610" width="70" height="30" as="geometry" />
        </mxCell>
        <mxCell id="yBj-ejxsMenrFA8ZDO_d-5" value="Use Controls" style="whiteSpace=wrap;html=1;fillColor=#FF99FF;" vertex="1" parent="1">
          <mxGeometry x="420" y="650" width="70" height="40" as="geometry" />
        </mxCell>
        <mxCell id="yBj-ejxsMenrFA8ZDO_d-6" value="Use XP" style="whiteSpace=wrap;html=1;fillColor=#FF99FF;" vertex="1" parent="1">
          <mxGeometry x="420" y="700" width="70" height="30" as="geometry" />
        </mxCell>
        <mxCell id="yBj-ejxsMenrFA8ZDO_d-7" value="Use player bullets" style="whiteSpace=wrap;html=1;fillColor=#FF99FF;" vertex="1" parent="1">
          <mxGeometry x="420" y="740" width="70" height="30" as="geometry" />
        </mxCell>
        <mxCell id="yBj-ejxsMenrFA8ZDO_d-17" value="Aim towards player" style="whiteSpace=wrap;html=1;fillColor=#FF99FF;" vertex="1" parent="1">
          <mxGeometry x="540" y="610" width="70" height="30" as="geometry" />
        </mxCell>
        <mxCell id="yBj-ejxsMenrFA8ZDO_d-42" style="edgeStyle=orthogonalEdgeStyle;rounded=0;orthogonalLoop=1;jettySize=auto;html=1;entryX=0;entryY=0.5;entryDx=0;entryDy=0;fontSize=10;" edge="1" parent="1" source="yBj-ejxsMenrFA8ZDO_d-20" target="yBj-ejxsMenrFA8ZDO_d-41">
          <mxGeometry relative="1" as="geometry">
            <Array as="points">
              <mxPoint x="260" y="515" />
            </Array>
          </mxGeometry>
        </mxCell>
        <mxCell id="yBj-ejxsMenrFA8ZDO_d-20" value="&lt;font style=&quot;font-size: 10px&quot;&gt;Kill all enemies to progress&lt;/font&gt;" style="whiteSpace=wrap;html=1;fillColor=#CCFFFF;" vertex="1" parent="1">
          <mxGeometry x="230" y="440" width="70" height="40" as="geometry" />
        </mxCell>
        <mxCell id="yBj-ejxsMenrFA8ZDO_d-22" value="Can&#39;t hurt each other" style="whiteSpace=wrap;html=1;fillColor=#FF99FF;" vertex="1" parent="1">
          <mxGeometry x="540" y="650" width="70" height="30" as="geometry" />
        </mxCell>
        <mxCell id="yBj-ejxsMenrFA8ZDO_d-23" value="Spawn on enemy pos" style="whiteSpace=wrap;html=1;fillColor=#FF99FF;" vertex="1" parent="1">
          <mxGeometry x="540" y="690" width="70" height="40" as="geometry" />
        </mxCell>
        <mxCell id="yBj-ejxsMenrFA8ZDO_d-24" value="Use Type on creation" style="whiteSpace=wrap;html=1;fillColor=#FF99FF;" vertex="1" parent="1">
          <mxGeometry x="540" y="740" width="70" height="30" as="geometry" />
        </mxCell>
        <mxCell id="yBj-ejxsMenrFA8ZDO_d-30" value="Game Over on destroy" style="whiteSpace=wrap;html=1;fillColor=#FF99FF;" vertex="1" parent="1">
          <mxGeometry x="420" y="780" width="70" height="30" as="geometry" />
        </mxCell>
        <mxCell id="yBj-ejxsMenrFA8ZDO_d-31" value="Create XP on destroy" style="whiteSpace=wrap;html=1;fillColor=#FF99FF;" vertex="1" parent="1">
          <mxGeometry x="540" y="780" width="70" height="30" as="geometry" />
        </mxCell>
        <mxCell id="yBj-ejxsMenrFA8ZDO_d-41" value="Go to next level" style="whiteSpace=wrap;html=1;fillColor=#CCFFFF;" vertex="1" parent="1">
          <mxGeometry x="280" y="500" width="70" height="30" as="geometry" />
        </mxCell>
        <mxCell id="yBj-ejxsMenrFA8ZDO_d-43" value="Retry" style="whiteSpace=wrap;html=1;fillColor=#B9E0A5;" vertex="1" parent="1">
          <mxGeometry x="880" y="170" width="80" height="40" as="geometry" />
        </mxCell>
        <mxCell id="yBj-ejxsMenrFA8ZDO_d-45" value="Main Menu" style="whiteSpace=wrap;html=1;fillColor=#B9E0A5;" vertex="1" parent="1">
          <mxGeometry x="880" y="230" width="80" height="40" as="geometry" />
        </mxCell>
        <mxCell id="yBj-ejxsMenrFA8ZDO_d-52" value="" style="shape=image;verticalLabelPosition=bottom;labelBackgroundColor=default;verticalAlign=top;aspect=fixed;imageAspect=0;image=https://web.archive.org/web/20090829145224/http://geocities.com/ionedur/ani-fire.gif;" vertex="1" parent="1">
          <mxGeometry x="400" y="40" width="20" height="40" as="geometry" />
        </mxCell>
        <mxCell id="yBj-ejxsMenrFA8ZDO_d-53" value="" style="shape=image;verticalLabelPosition=bottom;labelBackgroundColor=default;verticalAlign=top;aspect=fixed;imageAspect=0;image=https://web.archive.org/web/20090829145224/http://geocities.com/ionedur/ani-fire.gif;" vertex="1" parent="1">
          <mxGeometry x="460" y="40" width="20" height="40" as="geometry" />
        </mxCell>
      </root>
    </mxGraphModel>
  </diagram>
</mxfile>
